<?xml version="1.0" standalone="no"?>
<!DOCTYPE svg PUBLIC "-//W3C//DTD SVG 20010904//EN"
 "http://www.w3.org/TR/2001/REC-SVG-20010904/DTD/svg10.dtd">
<svg version="1.0" xmlns="http://www.w3.org/2000/svg"
 width="278.000000pt" height="278.000000pt" viewBox="0 0 278.000000 278.000000"
 preserveAspectRatio="xMidYMid meet">
<metadata>
Created by potrace 1.14, written by Peter Selinger 2001-2017
</metadata>
<g transform="translate(0.000000,278.000000) scale(0.100000,-0.100000)"
fill="#000000" stroke="none">
<path d="M2127 2714 c-1 -1 -38 -4 -82 -7 -151 -11 -360 -52 -521 -104 l-81
-26 -18 -56 c-10 -30 -18 -60 -19 -66 -2 -5 -8 -36 -15 -67 -14 -66 -19 -99
-21 -148 l-2 -35 -8 41 c-5 23 -11 63 -13 90 -3 27 -6 51 -6 52 -2 7 -158 -82
-196 -112 -44 -35 -37 -15 9 24 32 28 159 116 174 121 11 4 20 95 10 105 -10
9 -163 -71 -268 -141 -148 -99 -297 -238 -302 -284 -3 -29 8 -172 17 -211 9
-37 15 -83 11 -79 -2 2 -18 40 -36 84 -17 44 -36 88 -41 97 -5 10 -9 25 -9 34
0 29 -25 -1 -85 -101 -68 -115 -108 -200 -150 -326 l-32 -95 39 -85 c22 -46
50 -97 62 -114 40 -54 40 -61 -1 -22 l-40 39 -7 -34 c-3 -18 -9 -44 -12 -58
-3 -14 -7 -76 -9 -139 -2 -62 -6 -115 -8 -117 -10 -11 -13 240 -4 331 5 42 2
55 -17 78 l-22 28 -12 -63 c-32 -175 -37 -535 -8 -683 2 -11 6 -41 10 -66 4
-25 9 -59 13 -75 3 -16 6 -35 6 -41 1 -19 8 -16 51 22 21 20 65 59 98 89 l60
54 3 143 c2 157 13 231 52 354 81 259 253 473 488 608 113 65 280 126 387 141
24 4 52 8 63 10 11 3 46 5 77 5 l57 1 6 38 c4 20 9 50 12 65 l5 28 -69 -6
c-92 -8 -100 -9 -198 -29 -46 -9 -184 -60 -247 -90 -38 -18 -68 -30 -68 -26 0
16 199 110 340 160 40 15 196 48 232 49 10 1 21 15 28 39 48 155 131 319 217
427 14 17 52 58 85 92 49 50 56 62 39 60 -12 -1 -23 -2 -24 -3z m-1027 -468
c0 -2 -8 -10 -17 -17 -16 -13 -17 -12 -4 4 13 16 21 21 21 13z m80 -381 c-7
-8 -17 -15 -23 -15 -6 0 -2 7 9 15 25 19 30 19 14 0z m-703 -937 c-3 -7 -5 -2
-5 12 0 14 2 19 5 13 2 -7 2 -19 0 -25z m13 -28 c0 -5 -2 -10 -4 -10 -3 0 -8
5 -11 10 -3 6 -1 10 4 10 6 0 11 -4 11 -10z"/>
<path d="M1972 2318 c-23 -46 -51 -114 -62 -151 -20 -68 -53 -245 -64 -342 -4
-27 -8 -61 -11 -75 -3 -14 -8 -38 -10 -55 -11 -60 -48 -161 -83 -224 -76 -139
-200 -239 -411 -330 -99 -43 -111 -40 -28 7 136 78 267 214 340 354 29 54 107
269 107 293 0 6 -133 -2 -160 -10 -8 -2 -32 -6 -53 -9 -21 -4 -48 -11 -60 -18
-12 -6 -24 -11 -27 -10 -24 6 -177 -65 -264 -123 -59 -39 -179 -152 -224 -211
-100 -131 -177 -313 -200 -473 -10 -73 -7 -260 5 -272 22 -22 298 51 518 136
105 41 250 104 288 125 38 22 13 -2 -42 -39 -32 -22 -66 -47 -74 -56 -9 -8
-18 -15 -21 -15 -3 0 -38 -20 -77 -45 -60 -39 -251 -136 -368 -186 l-34 -15
67 -50 c226 -170 692 -334 1076 -379 25 -3 56 -7 70 -10 14 -3 68 -7 120 -11
52 -3 100 -7 106 -9 6 -2 16 0 23 4 8 5 2 19 -21 44 -97 105 -212 377 -244
574 -3 21 -8 45 -9 53 -2 8 -4 20 -4 27 -1 6 -25 16 -53 23 -171 40 -289 151
-348 327 -11 32 -20 61 -20 64 0 8 33 -3 224 -78 l149 -58 12 -40 c6 -22 12
-43 13 -48 14 -76 10 -72 80 -96 37 -13 80 -27 95 -31 l28 -9 -7 42 c-3 23 -7
53 -9 67 -9 90 -86 327 -173 535 -59 140 -109 285 -118 341 -3 21 -9 56 -14
76 -13 63 -4 336 15 431 4 20 5 37 3 37 -3 0 -24 -37 -46 -82z m84 -1720 c30
-99 80 -204 141 -298 27 -41 53 -81 57 -88 6 -10 -8 -11 -69 -7 -42 4 -86 8
-98 11 -12 2 -40 7 -62 10 -104 14 -404 109 -430 137 -7 7 -6 8 1 4 6 -3 25
-9 42 -12 17 -3 82 -18 144 -34 62 -16 129 -31 148 -35 19 -3 45 -8 57 -10 12
-3 54 -8 94 -12 l71 -7 -30 59 c-35 69 -80 200 -87 252 -3 20 -7 46 -10 57 -2
11 -6 45 -9 75 -5 53 -4 54 6 15 5 -22 21 -75 34 -117z"/>
</g>
</svg>
